<?xml version="1.0" encoding="UTF-8" standalone="no"?>
<svg xmlns="http://www.w3.org/2000/svg" enable-background="new 0 0 100 100" xml:space="preserve" height="512" width="512" version="1.1" y="0px" x="0px" viewBox="0 0 512 512"><rect style="fill:#ffffff" height="512" width="512" y="0" x="0"/>
<g style="fill:#ab1b93">
<path d="m243.9 74.74-15.28 1.82-8.137 35.79c-10.28 2.553-20.26 6.202-29.77 10.88l-29.51-21.27-12.67 8.706 9.076 34.82c-8.016 7.162-15.23 15.18-21.51 23.89l-35.46-4.906-7.176 13.6 23.82 26.34c-3.754 10.17-6.382 20.72-7.835 31.46l-33.38 12.11-0.03415 15.37 33.33 12.25c1.438 10.73 4.047 21.27 7.78 31.43l-24.03 26.3 7.113 13.64 35.46-4.732c6.268 8.726 13.46 16.74 21.47 23.92l-9.272 34.85 12.63 8.766 29.56-21.09c9.503 4.706 19.49 8.38 29.77 10.96l7.976 35.83 15.26 1.887 16.55-33.18v-0.0677c10.45-0.2596 20.84-1.623 31-4.069l0.0977 0.4337 23.88 28.36 14.39-5.42-0.761-37.06-0.3443-0.6377c9.096-5.056 17.64-11.06 25.47-17.91l0.6887 0.8036 34.32 14.01 10.22-11.49-17.91-32.47-1.11-0.744c5.748-8.634 10.57-17.85 14.39-27.49l1.33 0.5313 36.9-3.55 3.711-14.92-30.94-20.43-1.654-0.1783c0.6229-5.26 0.9635-10.55 1.02-15.84-0.005-5.058-0.269-10.11-0.7907-15.14l1.492-0.1573 31.03-20.29-3.648-14.93-36.88-3.716-1.425 0.5612c-3.748-9.667-8.501-18.91-14.17-27.59l1.105-0.7355 18.04-32.39-10.17-11.53-34.39 13.86-0.7226 0.8375c-7.813-6.867-16.33-12.89-25.4-17.98l0.3868-0.71 0.9268-37.06-14.32-5.508-24.01 28.25-0.0851 0.3699c-10.16-2.506-20.55-3.929-31-4.247zm8.316 83.44c46.56-1.835 87.96 29.38 99.01 74.64 12.83 52.56-19.38 105.6-71.92 118.4-52.5 12.8-105.5-19.4-118.4-71.9-12.83-52.56 19.38-105.6 71.92-118.4 6.35-1.55 12.84-2.459 19.36-2.716z"/>
<circle cx="224" r="26.39" cy="256"/><circle cx="288.2" r="26.39" cy="256"/></g></svg>
